<svg height="512pt" viewBox="0 -46 512.00005 512" width="512pt" xmlns="http://www.w3.org/2000/svg"><path d="m508.6875 51.714844c-4.148438-5.15625-11.191406-6.984375-17.324219-4.496094-.976562.394531-1.941406.78125-2.898437 1.160156 3.855468-6.644531 7.015625-13.699218 9.511718-21.199218 1.878907-5.65625.234376-11.886719-4.191406-15.875-4.421875-3.992188-10.789062-4.984376-16.21875-2.53125-.070312.03125-.4375.203124-1.0625.515624-23.789062 11.933594-42.339844 18.933594-50.773437 20.578126-.589844-.515626-1.214844-1.066407-1.753907-1.546876-10.445312-9.257812-32.179687-28.320312-76.113281-28.320312-23.914062 0-58.136719 9.386719-82.464843 36.289062-19.191407 21.230469-28.753907 49.03125-28.53125 82.832032-70.300782-8.609375-127.949219-40.265625-175.8125-96.429688-3.328126-3.90625-8.425782-5.835937-13.511719-5.121094-5.082031.714844-9.445313 3.984376-11.566407 8.660157-6.480468 14.296875-14.957031 36.335937-13.785156 62.558593.773438 17.207032 5.558594 33.488282 14.292969 48.710938-8.9375-.453125-16.324219 6.996094-15.730469 15.972656 2.484375 37.53125 16.261719 66.585938 41.09375 86.855469-4.722656 3.789063-6.703125 10.042969-5.03125 15.855469 7.8125 27.109375 30.675782 56.5625 65.621094 70.679687-31.582031 15.929688-67.707031 22.617188-106.207031 19.445313-6.929688-.566406-13.355469 3.707031-15.5 10.328125-2.144531 6.621093.546875 13.847656 6.503906 17.453125 49.878906 30.199218 103.957031 45.507812 160.730469 45.507812 122.257812 0 193.183594-60.71875 231.152344-111.652344 46.84375-62.84375 63.464843-136.554687 63.464843-180.582031 0-5.769531-.171875-6.941406.003907-8.570312 5.832031-5.144531 21.929687-12.925781 46.785156-49.195313 3.746094-5.457031 3.464844-12.726562-.683594-17.882812zm-76.152344 70.890625c.023438 1.039062.050782 2.429687.050782 4.757812 0 39.4375-15.066407 105.695313-57.519532 162.652344-33.867187 45.429687-97.285156 99.585937-207.097656 99.585937-31.855469 0-62.796875-5.359374-92.496094-15.984374 34.800782-6.070313 66.882813-20.070313 94.726563-41.566407 4.964843-3.832031 7.023437-10.347656 5.15625-16.332031-1.863281-5.988281-7.253907-10.183594-13.515625-10.519531-29.949219-1.605469-53.585938-18.039063-66.75-37.527344 5.160156-.332031 11.304687-1.144531 20.453125-2.753906 6.816406-1.199219 11.925781-6.90625 12.367187-13.816407.441406-6.90625-3.898437-13.21875-10.507812-15.277343-34.382813-10.707031-54.824219-30.238281-62.964844-60.667969 5.375 1.378906 11.816406 2.457031 22.476562 3.792969 6.589844.832031 12.9375-2.777344 15.605469-8.863281 2.664063-6.082032 1.011719-13.195313-4.0625-17.480469-38.273437-32.308594-40.285156-65.273438-33.238281-91.875 52.714844 53.613281 117.59375 84.515625 196.542969 89.933593 9.289062.636719 16.878906-7.253906 15.949219-16.46875-3.351563-33.269531 3.355468-59.4375 19.941406-77.78125 17.761718-19.644531 43.535156-26.613281 60.210937-26.613281 32.554688 0 46.792969 12.617188 56.214844 20.96875 5.496094 4.871094 10.683594 9.472657 18.511719 9.472657 5.476562 0 12.558594-1.554688 20.390625-4.042969-2.777344 2.355469-5.746094 4.625-8.914063 6.8125-5.570312 3.851562-7.867187 10.957031-5.609375 17.339843 2.257813 6.382813 8.507813 10.464844 15.265625 9.957032 2.59375-.195313 5.214844-.464844 7.859375-.8125-10.394531 7.894531-19.457031 12.703125-19.046875 33.109375zm0 0"/></svg>