<svg id="regular" enable-background="new 0 0 24 24" height="512" viewBox="0 0 24 24" width="512" xmlns="http://www.w3.org/2000/svg"><path d="m23 23.25v-20.543c0-1.493-1.212-2.707-2.702-2.707h-16.596c-1.49 0-2.702 1.214-2.702 2.707v14.673c0 1.492 1.212 2.707 2.702 2.707h13.462l4.613 3.746c.489.394 1.223.051 1.223-.583zm-1.5-1.575c-3.733-2.957-3.601-3.088-4.07-3.088h-13.728c-.663 0-1.202-.541-1.202-1.207v-14.673c0-.666.539-1.207 1.202-1.207h16.596c.663 0 1.202.541 1.202 1.207z"/><path d="m13.953 4.896c-4.126-.042-6.72-.466-8.827 2.895-1.198 1.912-1.448 5.213-.972 6.272.587 1.308 1.964 2.009 4.333 2.208.641.039.782-.556 1.442-1.255 1.197.246 2.943.246 4.141 0 .701.762.825 1.299 1.442 1.255 2.369-.198 3.747-.9 4.334-2.208.477-1.061.225-4.362-.972-6.272-1.967-3.138-4.866-2.901-4.921-2.895zm4.525 8.553c-.116.26-.459 1.024-2.7 1.288l-.046-.056c.058-.042 1.331-.971 1.383-1.02.688-.636-.196-1.71-.953-1.155 0 0-1.539 1.212-4.161 1.212-2.755 0-3.914-1.073-4.161-1.212-.756-.556-1.641.519-.953 1.155.052.048 1.326.978 1.383 1.02l-.046.056c-2.24-.264-2.583-1.027-2.7-1.289-.209-.479-.139-3.244.875-4.86.833-1.329 2.054-2.191 3.65-2.191 3.822-.086 5.902-.448 7.556 2.191 1.011 1.616 1.082 4.382.873 4.861z"/><path d="m9.56 8.804c-2.287 0-2.286 3.457 0 3.457 2.281 0 2.289-3.457 0-3.457zm-.164 1.551c.084-.099.383-.051.383.177-.001.45-.68.158-.383-.177z"/><path d="m12.722 10.532c0 2.295 3.438 2.306 3.438.001-.001-2.295-3.438-2.307-3.438-.001zm1.555-.177c.084-.099.382-.091.382.178 0 .45-.676.155-.382-.178z"/></svg>