<?xml version="1.0" encoding="iso-8859-1"?>
<!-- Generator: Adobe Illustrator 19.0.0, SVG Export Plug-In . SVG Version: 6.00 Build 0)  -->
<svg version="1.1" id="Capa_1" xmlns="http://www.w3.org/2000/svg" xmlns:xlink="http://www.w3.org/1999/xlink" x="0px" y="0px"
	 viewBox="0 0 512 512" style="enable-background:new 0 0 512 512;" xml:space="preserve">
<g>
	<g>
		<path fill="currentColor" d="M276,346h-40c-5.523,0-10,4.477-10,10s4.477,10,10,10h40c5.523,0,10-4.477,10-10S281.523,346,276,346z"/>
	</g>
</g>
<g>
	<g>
		<path fill="currentColor" d="M482,40H200V30c0-16.542-13.458-30-30-30H30C13.458,0,0,13.458,0,30c0,21.243,0,336.16,0,346c0,16.542,13.458,30,30,30
			h176v47.006c-19.563,3.987-35.007,19.431-38.994,38.994H136c-5.523,0-10,4.477-10,10s4.477,10,10,10h240c5.523,0,10-4.477,10-10
			s-4.477-10-10-10h-31.006c-3.987-19.563-19.431-35.007-38.994-38.994V406h176c16.542,0,30-13.458,30-30V70
			C512,53.458,498.542,40,482,40z M20,30c0-5.514,4.486-10,10-10h140c5.514,0,10,4.486,10,10v30H20V30z M20,80h160v186H20V80z
			 M20,286h160v50c0,5.514-4.486,10-10,10H30c-5.514,0-10-4.486-10-10V286z M324.28,492H187.72c4.128-11.639,15.243-20,28.28-20h80
			C309.036,472,320.152,480.361,324.28,492z M226,452v-46h60v46H226z M492,376c0,5.514-4.486,10-10,10H30c-5.514,0-10-4.486-10-10
			v-11.72c3.13,1.11,6.494,1.72,10,1.72h140c16.542,0,30-13.458,30-30v-11h292V376z M492,305H200V60h282c5.514,0,10,4.486,10,10V305
			z"/>
	</g>
</g>
<g>
	<g>
		<path fill="currentColor" d="M110,306H90c-5.523,0-10,4.477-10,10s4.477,10,10,10h20c5.523,0,10-4.477,10-10S115.523,306,110,306z"/>
	</g>
</g>
<g>
</g>
<g>
</g>
<g>
</g>
<g>
</g>
<g>
</g>
<g>
</g>
<g>
</g>
<g>
</g>
<g>
</g>
<g>
</g>
<g>
</g>
<g>
</g>
<g>
</g>
<g>
</g>
<g>
</g>
</svg>
